<?xml version="1.0" encoding="iso-8859-1"?>
<!-- Uploaded to: SVG Repo, www.svgrepo.com, Generator: SVG Repo Mixer Tools -->
<svg fill="#FFCE17" stroke="#000000" height="800px" width="800px" version="1.1" id="Layer_1" xmlns="http://www.w3.org/2000/svg" xmlns:xlink="http://www.w3.org/1999/xlink" 
	 viewBox="0 0 512 512" xml:space="preserve">
<g>
	<g>
		<path d="M460.8,102.4h-128V51.2c0-14.14-11.46-25.6-25.6-25.6H204.8c-14.14,0-25.6,11.46-25.6,25.6v51.2h-128
			C22.921,102.4,0,125.321,0,153.6v281.6c0,28.279,22.921,51.2,51.2,51.2h409.6c28.279,0,51.2-22.921,51.2-51.2V153.6
			C512,125.321,489.079,102.4,460.8,102.4z M204.8,51.2h102.4v51.2H204.8V51.2z M76.8,460.8H51.2c-14.114,0-25.6-11.486-25.6-25.6
			V153.6c0-14.114,11.486-25.6,25.6-25.6h25.6V460.8z M128,460.8h-25.6V128H128V460.8z M358.4,460.8H153.6V128h204.8V460.8z
			 M409.6,460.8H384V128h25.6V460.8z M486.4,435.2c0,14.114-11.486,25.6-25.6,25.6h-25.6V128h25.6c14.114,0,25.6,11.486,25.6,25.6
			V435.2z"/>
	</g>
</g>
</svg>